<mxfile host="Electron" agent="Mozilla/5.0 (Windows NT 10.0; Win64; x64) AppleWebKit/537.36 (KHTML, like Gecko) draw.io/24.7.8 Chrome/128.0.6613.36 Electron/32.0.1 Safari/537.36" version="24.7.8" pages="2">
  <diagram name="Page-1" id="sHXMOJYVvZu-cub8RXsX">
    <mxGraphModel dx="2021" dy="725" grid="1" gridSize="10" guides="1" tooltips="1" connect="1" arrows="1" fold="1" page="0" pageScale="1" pageWidth="850" pageHeight="1100" background="none" math="0" shadow="1">
      <root>
        <mxCell id="0" />
        <mxCell id="1" parent="0" />
        <mxCell id="Er0_JmGFYayNPNsLwy8c-55" value="" style="rounded=0;whiteSpace=wrap;html=1;fillColor=#dae8fc;strokeColor=#6c8ebf;" parent="1" vertex="1">
          <mxGeometry x="-272" y="480" width="242" height="80" as="geometry" />
        </mxCell>
        <mxCell id="Er0_JmGFYayNPNsLwy8c-54" value="" style="rounded=0;whiteSpace=wrap;html=1;fillColor=#f5f5f5;fontColor=#333333;strokeColor=#666666;" parent="1" vertex="1">
          <mxGeometry x="-272" y="30" width="247" height="70" as="geometry" />
        </mxCell>
        <mxCell id="Er0_JmGFYayNPNsLwy8c-53" value="" style="rounded=0;whiteSpace=wrap;html=1;fillColor=#dae8fc;strokeColor=#6c8ebf;" parent="1" vertex="1">
          <mxGeometry x="-725" y="298" width="315" height="260" as="geometry" />
        </mxCell>
        <mxCell id="Er0_JmGFYayNPNsLwy8c-52" value="" style="rounded=0;whiteSpace=wrap;html=1;fillColor=#f5f5f5;fontColor=#333333;strokeColor=#666666;" parent="1" vertex="1">
          <mxGeometry x="-725" y="30" width="315" height="260" as="geometry" />
        </mxCell>
        <mxCell id="Er0_JmGFYayNPNsLwy8c-1" value="" style="verticalLabelPosition=bottom;verticalAlign=top;html=1;shape=mxgraph.basic.rect;fillColor2=none;strokeWidth=1;size=20;indent=5;" parent="1" vertex="1">
          <mxGeometry x="-402" y="30" width="120" height="530" as="geometry" />
        </mxCell>
        <mxCell id="Er0_JmGFYayNPNsLwy8c-2" value="LOG" style="rounded=1;whiteSpace=wrap;html=1;" parent="1" vertex="1">
          <mxGeometry x="-705" y="240" width="80" height="30" as="geometry" />
        </mxCell>
        <mxCell id="Er0_JmGFYayNPNsLwy8c-3" value="XSL" style="rounded=1;whiteSpace=wrap;html=1;" parent="1" vertex="1">
          <mxGeometry x="-705" y="190" width="80" height="30" as="geometry" />
        </mxCell>
        <mxCell id="Er0_JmGFYayNPNsLwy8c-4" value="DOC" style="rounded=1;whiteSpace=wrap;html=1;" parent="1" vertex="1">
          <mxGeometry x="-705" y="140" width="80" height="30" as="geometry" />
        </mxCell>
        <mxCell id="Er0_JmGFYayNPNsLwy8c-5" value="PDF" style="rounded=1;whiteSpace=wrap;html=1;" parent="1" vertex="1">
          <mxGeometry x="-705" y="90" width="80" height="30" as="geometry" />
        </mxCell>
        <mxCell id="Er0_JmGFYayNPNsLwy8c-6" value="TXT" style="rounded=1;whiteSpace=wrap;html=1;" parent="1" vertex="1">
          <mxGeometry x="-705" y="40" width="80" height="30" as="geometry" />
        </mxCell>
        <mxCell id="Er0_JmGFYayNPNsLwy8c-7" value="&lt;div&gt;Agent&lt;/div&gt;LLM Selection" style="rounded=0;whiteSpace=wrap;html=1;" parent="1" vertex="1">
          <mxGeometry x="-550" y="130" width="100" height="40" as="geometry" />
        </mxCell>
        <mxCell id="Er0_JmGFYayNPNsLwy8c-8" value="" style="endArrow=classic;html=1;rounded=0;entryX=0;entryY=0.5;entryDx=0;entryDy=0;" parent="1" edge="1">
          <mxGeometry width="50" height="50" relative="1" as="geometry">
            <mxPoint x="-625" y="60" as="sourcePoint" />
            <mxPoint x="-550" y="150" as="targetPoint" />
          </mxGeometry>
        </mxCell>
        <mxCell id="Er0_JmGFYayNPNsLwy8c-9" value="" style="endArrow=classic;html=1;rounded=0;exitX=1;exitY=0.5;exitDx=0;exitDy=0;" parent="1" source="Er0_JmGFYayNPNsLwy8c-5" edge="1">
          <mxGeometry width="50" height="50" relative="1" as="geometry">
            <mxPoint x="-615" y="70" as="sourcePoint" />
            <mxPoint x="-550" y="150" as="targetPoint" />
          </mxGeometry>
        </mxCell>
        <mxCell id="Er0_JmGFYayNPNsLwy8c-10" value="" style="endArrow=classic;html=1;rounded=0;" parent="1" edge="1">
          <mxGeometry width="50" height="50" relative="1" as="geometry">
            <mxPoint x="-620" y="160" as="sourcePoint" />
            <mxPoint x="-550" y="150" as="targetPoint" />
          </mxGeometry>
        </mxCell>
        <mxCell id="Er0_JmGFYayNPNsLwy8c-11" value="" style="endArrow=classic;html=1;rounded=0;entryX=0;entryY=0.5;entryDx=0;entryDy=0;" parent="1" target="Er0_JmGFYayNPNsLwy8c-7" edge="1">
          <mxGeometry width="50" height="50" relative="1" as="geometry">
            <mxPoint x="-620" y="200" as="sourcePoint" />
            <mxPoint x="-560" y="150" as="targetPoint" />
          </mxGeometry>
        </mxCell>
        <mxCell id="Er0_JmGFYayNPNsLwy8c-12" value="" style="endArrow=classic;html=1;rounded=0;entryX=0;entryY=0.5;entryDx=0;entryDy=0;exitX=1;exitY=0.5;exitDx=0;exitDy=0;" parent="1" source="Er0_JmGFYayNPNsLwy8c-2" target="Er0_JmGFYayNPNsLwy8c-7" edge="1">
          <mxGeometry width="50" height="50" relative="1" as="geometry">
            <mxPoint x="-585" y="100" as="sourcePoint" />
            <mxPoint x="-510" y="190" as="targetPoint" />
          </mxGeometry>
        </mxCell>
        <mxCell id="Er0_JmGFYayNPNsLwy8c-13" value="&lt;span style=&quot;color: rgb(18, 23, 55); font-family: Manrope, sans-serif; font-size: 16px; text-align: start; background-color: rgb(246, 246, 247);&quot;&gt;Falcon&lt;/span&gt;" style="rounded=1;whiteSpace=wrap;html=1;" parent="1" vertex="1">
          <mxGeometry x="-382" y="379" width="80" height="30" as="geometry" />
        </mxCell>
        <mxCell id="Er0_JmGFYayNPNsLwy8c-14" value="OPENAI" style="rounded=1;whiteSpace=wrap;html=1;" parent="1" vertex="1">
          <mxGeometry x="-382" y="329" width="80" height="30" as="geometry" />
        </mxCell>
        <mxCell id="Er0_JmGFYayNPNsLwy8c-15" value="MISTRAL" style="rounded=1;whiteSpace=wrap;html=1;" parent="1" vertex="1">
          <mxGeometry x="-382" y="279" width="80" height="30" as="geometry" />
        </mxCell>
        <mxCell id="Er0_JmGFYayNPNsLwy8c-16" value="OLLAMA" style="rounded=1;whiteSpace=wrap;html=1;" parent="1" vertex="1">
          <mxGeometry x="-382" y="229" width="80" height="30" as="geometry" />
        </mxCell>
        <mxCell id="Er0_JmGFYayNPNsLwy8c-17" value="GEMINI" style="rounded=1;whiteSpace=wrap;html=1;" parent="1" vertex="1">
          <mxGeometry x="-382" y="179" width="80" height="30" as="geometry" />
        </mxCell>
        <mxCell id="Er0_JmGFYayNPNsLwy8c-18" style="edgeStyle=orthogonalEdgeStyle;rounded=0;orthogonalLoop=1;jettySize=auto;html=1;exitX=1;exitY=0.5;exitDx=0;exitDy=0;entryX=0;entryY=0.5;entryDx=0;entryDy=0;" parent="1" source="Er0_JmGFYayNPNsLwy8c-19" target="Er0_JmGFYayNPNsLwy8c-25" edge="1">
          <mxGeometry relative="1" as="geometry" />
        </mxCell>
        <mxCell id="Er0_JmGFYayNPNsLwy8c-19" value="Agent&lt;br&gt;DB Selction" style="rounded=0;whiteSpace=wrap;html=1;" parent="1" vertex="1">
          <mxGeometry x="-252" y="43" width="100" height="40" as="geometry" />
        </mxCell>
        <mxCell id="Er0_JmGFYayNPNsLwy8c-20" value="Chromadb" style="strokeWidth=2;html=1;shape=mxgraph.flowchart.database;whiteSpace=wrap;" parent="1" vertex="1">
          <mxGeometry x="41" y="173" width="30" height="40" as="geometry" />
        </mxCell>
        <mxCell id="Er0_JmGFYayNPNsLwy8c-21" value="" style="edgeStyle=orthogonalEdgeStyle;rounded=0;orthogonalLoop=1;jettySize=auto;html=1;" parent="1" source="Er0_JmGFYayNPNsLwy8c-22" target="Er0_JmGFYayNPNsLwy8c-20" edge="1">
          <mxGeometry relative="1" as="geometry" />
        </mxCell>
        <mxCell id="Er0_JmGFYayNPNsLwy8c-22" value="PGVector" style="strokeWidth=2;html=1;shape=mxgraph.flowchart.database;whiteSpace=wrap;" parent="1" vertex="1">
          <mxGeometry x="40" y="237" width="30" height="40" as="geometry" />
        </mxCell>
        <mxCell id="Er0_JmGFYayNPNsLwy8c-23" value="Pinecon" style="strokeWidth=2;html=1;shape=mxgraph.flowchart.database;whiteSpace=wrap;" parent="1" vertex="1">
          <mxGeometry x="40" y="300" width="30" height="40" as="geometry" />
        </mxCell>
        <mxCell id="Er0_JmGFYayNPNsLwy8c-24" value="Quadrant" style="strokeWidth=2;html=1;shape=mxgraph.flowchart.database;whiteSpace=wrap;" parent="1" vertex="1">
          <mxGeometry x="40" y="365" width="30" height="40" as="geometry" />
        </mxCell>
        <mxCell id="Er0_JmGFYayNPNsLwy8c-25" value="Document&lt;br&gt;Embeddings" style="rounded=0;whiteSpace=wrap;html=1;" parent="1" vertex="1">
          <mxGeometry x="-120" y="45.5" width="80" height="35" as="geometry" />
        </mxCell>
        <mxCell id="Er0_JmGFYayNPNsLwy8c-26" value="Streamlit" style="rounded=1;whiteSpace=wrap;html=1;" parent="1" vertex="1">
          <mxGeometry x="-705" y="505" width="80" height="30" as="geometry" />
        </mxCell>
        <mxCell id="Er0_JmGFYayNPNsLwy8c-27" value="CLI" style="rounded=1;whiteSpace=wrap;html=1;" parent="1" vertex="1">
          <mxGeometry x="-705" y="455" width="80" height="30" as="geometry" />
        </mxCell>
        <mxCell id="Er0_JmGFYayNPNsLwy8c-28" value="SDK" style="rounded=1;whiteSpace=wrap;html=1;" parent="1" vertex="1">
          <mxGeometry x="-705" y="405" width="80" height="30" as="geometry" />
        </mxCell>
        <mxCell id="Er0_JmGFYayNPNsLwy8c-29" value="CHAT" style="rounded=1;whiteSpace=wrap;html=1;" parent="1" vertex="1">
          <mxGeometry x="-705" y="355" width="80" height="30" as="geometry" />
        </mxCell>
        <mxCell id="Er0_JmGFYayNPNsLwy8c-30" value="API" style="rounded=1;whiteSpace=wrap;html=1;" parent="1" vertex="1">
          <mxGeometry x="-705" y="305" width="80" height="30" as="geometry" />
        </mxCell>
        <mxCell id="Er0_JmGFYayNPNsLwy8c-31" value="Prompt/Query&lt;div&gt;&lt;/div&gt;" style="rounded=0;whiteSpace=wrap;html=1;" parent="1" vertex="1">
          <mxGeometry x="-550" y="400" width="100" height="40" as="geometry" />
        </mxCell>
        <mxCell id="Er0_JmGFYayNPNsLwy8c-32" value="" style="endArrow=classic;html=1;rounded=0;entryX=0;entryY=0.5;entryDx=0;entryDy=0;exitX=1;exitY=0.25;exitDx=0;exitDy=0;startArrow=block;startFill=1;" parent="1" source="Er0_JmGFYayNPNsLwy8c-30" edge="1">
          <mxGeometry width="50" height="50" relative="1" as="geometry">
            <mxPoint x="-625" y="330" as="sourcePoint" />
            <mxPoint x="-550" y="420" as="targetPoint" />
          </mxGeometry>
        </mxCell>
        <mxCell id="Er0_JmGFYayNPNsLwy8c-33" value="" style="endArrow=classic;html=1;rounded=0;exitX=1;exitY=0.5;exitDx=0;exitDy=0;startArrow=block;startFill=1;" parent="1" source="Er0_JmGFYayNPNsLwy8c-29" edge="1">
          <mxGeometry width="50" height="50" relative="1" as="geometry">
            <mxPoint x="-615" y="340" as="sourcePoint" />
            <mxPoint x="-550" y="420" as="targetPoint" />
          </mxGeometry>
        </mxCell>
        <mxCell id="Er0_JmGFYayNPNsLwy8c-34" value="" style="endArrow=classic;html=1;rounded=0;exitX=1;exitY=0.5;exitDx=0;exitDy=0;startArrow=block;startFill=1;" parent="1" source="Er0_JmGFYayNPNsLwy8c-28" edge="1">
          <mxGeometry width="50" height="50" relative="1" as="geometry">
            <mxPoint x="-620" y="430" as="sourcePoint" />
            <mxPoint x="-550" y="420" as="targetPoint" />
          </mxGeometry>
        </mxCell>
        <mxCell id="Er0_JmGFYayNPNsLwy8c-35" value="" style="endArrow=classic;html=1;rounded=0;entryX=0;entryY=0.5;entryDx=0;entryDy=0;exitX=1;exitY=0.5;exitDx=0;exitDy=0;startArrow=block;startFill=1;" parent="1" source="Er0_JmGFYayNPNsLwy8c-27" target="Er0_JmGFYayNPNsLwy8c-31" edge="1">
          <mxGeometry width="50" height="50" relative="1" as="geometry">
            <mxPoint x="-620" y="470" as="sourcePoint" />
            <mxPoint x="-560" y="420" as="targetPoint" />
          </mxGeometry>
        </mxCell>
        <mxCell id="Er0_JmGFYayNPNsLwy8c-36" value="" style="endArrow=classic;html=1;rounded=0;entryX=0;entryY=0.5;entryDx=0;entryDy=0;exitX=1;exitY=0.5;exitDx=0;exitDy=0;startArrow=block;startFill=1;" parent="1" source="Er0_JmGFYayNPNsLwy8c-26" target="Er0_JmGFYayNPNsLwy8c-31" edge="1">
          <mxGeometry width="50" height="50" relative="1" as="geometry">
            <mxPoint x="-585" y="370" as="sourcePoint" />
            <mxPoint x="-510" y="460" as="targetPoint" />
          </mxGeometry>
        </mxCell>
        <mxCell id="Er0_JmGFYayNPNsLwy8c-37" style="edgeStyle=orthogonalEdgeStyle;rounded=0;orthogonalLoop=1;jettySize=auto;html=1;exitX=1;exitY=0.5;exitDx=0;exitDy=0;entryX=0;entryY=0.5;entryDx=0;entryDy=0;startArrow=block;startFill=1;" parent="1" source="Er0_JmGFYayNPNsLwy8c-38" target="Er0_JmGFYayNPNsLwy8c-39" edge="1">
          <mxGeometry relative="1" as="geometry" />
        </mxCell>
        <mxCell id="Er0_JmGFYayNPNsLwy8c-38" value="Agent&lt;br&gt;DB Selction" style="rounded=0;whiteSpace=wrap;html=1;" parent="1" vertex="1">
          <mxGeometry x="-252" y="496" width="100" height="40" as="geometry" />
        </mxCell>
        <mxCell id="Er0_JmGFYayNPNsLwy8c-39" value="Query Embeddings" style="rounded=0;whiteSpace=wrap;html=1;" parent="1" vertex="1">
          <mxGeometry x="-123" y="498.5" width="80" height="35" as="geometry" />
        </mxCell>
        <mxCell id="Er0_JmGFYayNPNsLwy8c-40" style="edgeStyle=orthogonalEdgeStyle;rounded=0;orthogonalLoop=1;jettySize=auto;html=1;exitX=0.5;exitY=1;exitDx=0;exitDy=0;exitPerimeter=0;entryX=0.5;entryY=0;entryDx=0;entryDy=0;entryPerimeter=0;startArrow=block;startFill=1;" parent="1" source="Er0_JmGFYayNPNsLwy8c-22" target="Er0_JmGFYayNPNsLwy8c-23" edge="1">
          <mxGeometry relative="1" as="geometry" />
        </mxCell>
        <mxCell id="Er0_JmGFYayNPNsLwy8c-41" style="edgeStyle=orthogonalEdgeStyle;rounded=0;orthogonalLoop=1;jettySize=auto;html=1;exitX=0.5;exitY=1;exitDx=0;exitDy=0;exitPerimeter=0;entryX=0.5;entryY=0;entryDx=0;entryDy=0;entryPerimeter=0;startArrow=block;startFill=1;" parent="1" source="Er0_JmGFYayNPNsLwy8c-23" target="Er0_JmGFYayNPNsLwy8c-24" edge="1">
          <mxGeometry relative="1" as="geometry" />
        </mxCell>
        <mxCell id="Er0_JmGFYayNPNsLwy8c-42" style="edgeStyle=orthogonalEdgeStyle;rounded=0;orthogonalLoop=1;jettySize=auto;html=1;exitX=1;exitY=0.5;exitDx=0;exitDy=0;entryX=-0.014;entryY=0.063;entryDx=0;entryDy=0;entryPerimeter=0;" parent="1" source="Er0_JmGFYayNPNsLwy8c-7" target="Er0_JmGFYayNPNsLwy8c-1" edge="1">
          <mxGeometry relative="1" as="geometry" />
        </mxCell>
        <mxCell id="Er0_JmGFYayNPNsLwy8c-43" style="edgeStyle=orthogonalEdgeStyle;rounded=0;orthogonalLoop=1;jettySize=auto;html=1;entryX=0;entryY=0.5;entryDx=0;entryDy=0;" parent="1" target="Er0_JmGFYayNPNsLwy8c-19" edge="1">
          <mxGeometry relative="1" as="geometry">
            <mxPoint x="-280" y="63" as="sourcePoint" />
            <mxPoint x="-394" y="68" as="targetPoint" />
          </mxGeometry>
        </mxCell>
        <mxCell id="Er0_JmGFYayNPNsLwy8c-44" style="edgeStyle=orthogonalEdgeStyle;rounded=0;orthogonalLoop=1;jettySize=auto;html=1;entryX=-0.003;entryY=0.908;entryDx=0;entryDy=0;entryPerimeter=0;startArrow=block;startFill=1;" parent="1" source="Er0_JmGFYayNPNsLwy8c-31" target="Er0_JmGFYayNPNsLwy8c-1" edge="1">
          <mxGeometry relative="1" as="geometry" />
        </mxCell>
        <mxCell id="Er0_JmGFYayNPNsLwy8c-45" style="edgeStyle=orthogonalEdgeStyle;rounded=0;orthogonalLoop=1;jettySize=auto;html=1;startArrow=block;startFill=1;" parent="1" edge="1">
          <mxGeometry relative="1" as="geometry">
            <mxPoint x="-280" y="513" as="sourcePoint" />
            <mxPoint x="-250" y="513" as="targetPoint" />
          </mxGeometry>
        </mxCell>
        <mxCell id="Er0_JmGFYayNPNsLwy8c-48" style="edgeStyle=orthogonalEdgeStyle;rounded=0;orthogonalLoop=1;jettySize=auto;html=1;exitX=1;exitY=0.5;exitDx=0;exitDy=0;startArrow=block;startFill=1;entryX=0.5;entryY=1;entryDx=0;entryDy=0;entryPerimeter=0;" parent="1" source="Er0_JmGFYayNPNsLwy8c-39" target="Er0_JmGFYayNPNsLwy8c-24" edge="1">
          <mxGeometry relative="1" as="geometry">
            <mxPoint x="-21" y="429.75" as="sourcePoint" />
            <mxPoint x="44" y="403" as="targetPoint" />
          </mxGeometry>
        </mxCell>
        <mxCell id="Er0_JmGFYayNPNsLwy8c-49" value="Search" style="edgeLabel;html=1;align=center;verticalAlign=middle;resizable=0;points=[];" parent="Er0_JmGFYayNPNsLwy8c-48" vertex="1" connectable="0">
          <mxGeometry x="-0.2415" relative="1" as="geometry">
            <mxPoint as="offset" />
          </mxGeometry>
        </mxCell>
        <mxCell id="Er0_JmGFYayNPNsLwy8c-50" style="edgeStyle=orthogonalEdgeStyle;rounded=0;orthogonalLoop=1;jettySize=auto;html=1;entryX=0.5;entryY=0;entryDx=0;entryDy=0;entryPerimeter=0;startArrow=block;startFill=1;" parent="1" source="Er0_JmGFYayNPNsLwy8c-20" target="Er0_JmGFYayNPNsLwy8c-22" edge="1">
          <mxGeometry relative="1" as="geometry">
            <mxPoint x="55" y="211" as="sourcePoint" />
            <mxPoint x="55" y="234" as="targetPoint" />
          </mxGeometry>
        </mxCell>
        <mxCell id="Er0_JmGFYayNPNsLwy8c-56" style="edgeStyle=orthogonalEdgeStyle;rounded=0;orthogonalLoop=1;jettySize=auto;html=1;exitX=1;exitY=0.5;exitDx=0;exitDy=0;entryX=0.5;entryY=0;entryDx=0;entryDy=0;entryPerimeter=0;" parent="1" source="Er0_JmGFYayNPNsLwy8c-25" target="Er0_JmGFYayNPNsLwy8c-20" edge="1">
          <mxGeometry relative="1" as="geometry" />
        </mxCell>
        <mxCell id="Er0_JmGFYayNPNsLwy8c-57" value="Store" style="edgeLabel;html=1;align=center;verticalAlign=middle;resizable=0;points=[];" parent="Er0_JmGFYayNPNsLwy8c-56" vertex="1" connectable="0">
          <mxGeometry x="-0.5728" y="-1" relative="1" as="geometry">
            <mxPoint as="offset" />
          </mxGeometry>
        </mxCell>
      </root>
    </mxGraphModel>
  </diagram>
  <diagram id="RTcCYDsbgqnyVKRaQfiJ" name="Page-2">
    <mxGraphModel dx="2071" dy="725" grid="1" gridSize="10" guides="1" tooltips="1" connect="1" arrows="1" fold="1" page="1" pageScale="1" pageWidth="850" pageHeight="1100" math="0" shadow="0">
      <root>
        <mxCell id="0" />
        <mxCell id="1" parent="0" />
        <mxCell id="cYvZkhtMQDxPyYzyKL84-1" value="" style="rounded=0;whiteSpace=wrap;html=1;fillColor=#f5f5f5;fontColor=#333333;strokeColor=#666666;" vertex="1" parent="1">
          <mxGeometry x="-200" y="30" width="200" height="130" as="geometry" />
        </mxCell>
        <mxCell id="46yj2kF7BwGPf_dBNhTA-1" value="" style="rounded=0;whiteSpace=wrap;html=1;fillColor=#dae8fc;strokeColor=#6c8ebf;" parent="1" vertex="1">
          <mxGeometry x="-200" y="430" width="200" height="130" as="geometry" />
        </mxCell>
        <mxCell id="46yj2kF7BwGPf_dBNhTA-3" value="" style="rounded=0;whiteSpace=wrap;html=1;fillColor=#dae8fc;strokeColor=#6c8ebf;" parent="1" vertex="1">
          <mxGeometry x="-725" y="298" width="315" height="260" as="geometry" />
        </mxCell>
        <mxCell id="46yj2kF7BwGPf_dBNhTA-4" value="" style="rounded=0;whiteSpace=wrap;html=1;fillColor=#f5f5f5;fontColor=#333333;strokeColor=#666666;" parent="1" vertex="1">
          <mxGeometry x="-725" y="30" width="315" height="260" as="geometry" />
        </mxCell>
        <mxCell id="46yj2kF7BwGPf_dBNhTA-5" value="" style="verticalLabelPosition=bottom;verticalAlign=top;html=1;shape=mxgraph.basic.rect;fillColor2=none;strokeWidth=1;size=20;indent=5;" parent="1" vertex="1">
          <mxGeometry x="-351" y="28" width="120" height="530" as="geometry" />
        </mxCell>
        <mxCell id="46yj2kF7BwGPf_dBNhTA-6" value="LOG" style="rounded=1;whiteSpace=wrap;html=1;" parent="1" vertex="1">
          <mxGeometry x="-705" y="240" width="80" height="30" as="geometry" />
        </mxCell>
        <mxCell id="46yj2kF7BwGPf_dBNhTA-7" value="XSL" style="rounded=1;whiteSpace=wrap;html=1;" parent="1" vertex="1">
          <mxGeometry x="-705" y="190" width="80" height="30" as="geometry" />
        </mxCell>
        <mxCell id="46yj2kF7BwGPf_dBNhTA-8" value="DOC" style="rounded=1;whiteSpace=wrap;html=1;" parent="1" vertex="1">
          <mxGeometry x="-705" y="140" width="80" height="30" as="geometry" />
        </mxCell>
        <mxCell id="46yj2kF7BwGPf_dBNhTA-9" value="PDF" style="rounded=1;whiteSpace=wrap;html=1;" parent="1" vertex="1">
          <mxGeometry x="-705" y="90" width="80" height="30" as="geometry" />
        </mxCell>
        <mxCell id="46yj2kF7BwGPf_dBNhTA-10" value="TXT" style="rounded=1;whiteSpace=wrap;html=1;" parent="1" vertex="1">
          <mxGeometry x="-705" y="40" width="80" height="30" as="geometry" />
        </mxCell>
        <mxCell id="46yj2kF7BwGPf_dBNhTA-11" value="&lt;div&gt;Agent&lt;/div&gt;LLM Selection" style="rounded=0;whiteSpace=wrap;html=1;" parent="1" vertex="1">
          <mxGeometry x="-550" y="130" width="100" height="40" as="geometry" />
        </mxCell>
        <mxCell id="46yj2kF7BwGPf_dBNhTA-12" value="" style="endArrow=classic;html=1;rounded=0;entryX=0;entryY=0.5;entryDx=0;entryDy=0;" parent="1" edge="1">
          <mxGeometry width="50" height="50" relative="1" as="geometry">
            <mxPoint x="-625" y="60" as="sourcePoint" />
            <mxPoint x="-550" y="150" as="targetPoint" />
          </mxGeometry>
        </mxCell>
        <mxCell id="46yj2kF7BwGPf_dBNhTA-13" value="" style="endArrow=classic;html=1;rounded=0;exitX=1;exitY=0.5;exitDx=0;exitDy=0;" parent="1" source="46yj2kF7BwGPf_dBNhTA-9" edge="1">
          <mxGeometry width="50" height="50" relative="1" as="geometry">
            <mxPoint x="-615" y="70" as="sourcePoint" />
            <mxPoint x="-550" y="150" as="targetPoint" />
          </mxGeometry>
        </mxCell>
        <mxCell id="46yj2kF7BwGPf_dBNhTA-14" value="" style="endArrow=classic;html=1;rounded=0;" parent="1" edge="1">
          <mxGeometry width="50" height="50" relative="1" as="geometry">
            <mxPoint x="-620" y="160" as="sourcePoint" />
            <mxPoint x="-550" y="150" as="targetPoint" />
          </mxGeometry>
        </mxCell>
        <mxCell id="46yj2kF7BwGPf_dBNhTA-15" value="" style="endArrow=classic;html=1;rounded=0;entryX=0;entryY=0.5;entryDx=0;entryDy=0;" parent="1" target="46yj2kF7BwGPf_dBNhTA-11" edge="1">
          <mxGeometry width="50" height="50" relative="1" as="geometry">
            <mxPoint x="-620" y="200" as="sourcePoint" />
            <mxPoint x="-560" y="150" as="targetPoint" />
          </mxGeometry>
        </mxCell>
        <mxCell id="46yj2kF7BwGPf_dBNhTA-16" value="" style="endArrow=classic;html=1;rounded=0;entryX=0;entryY=0.5;entryDx=0;entryDy=0;exitX=1;exitY=0.5;exitDx=0;exitDy=0;" parent="1" source="46yj2kF7BwGPf_dBNhTA-6" target="46yj2kF7BwGPf_dBNhTA-11" edge="1">
          <mxGeometry width="50" height="50" relative="1" as="geometry">
            <mxPoint x="-585" y="100" as="sourcePoint" />
            <mxPoint x="-510" y="190" as="targetPoint" />
          </mxGeometry>
        </mxCell>
        <mxCell id="46yj2kF7BwGPf_dBNhTA-17" value="&lt;span style=&quot;color: rgb(18, 23, 55); font-family: Manrope, sans-serif; font-size: 16px; text-align: start; background-color: rgb(246, 246, 247);&quot;&gt;Falcon&lt;/span&gt;" style="rounded=1;whiteSpace=wrap;html=1;" parent="1" vertex="1">
          <mxGeometry x="-331" y="379" width="80" height="30" as="geometry" />
        </mxCell>
        <mxCell id="46yj2kF7BwGPf_dBNhTA-18" value="OPENAI" style="rounded=1;whiteSpace=wrap;html=1;" parent="1" vertex="1">
          <mxGeometry x="-331" y="329" width="80" height="30" as="geometry" />
        </mxCell>
        <mxCell id="46yj2kF7BwGPf_dBNhTA-19" value="MISTRAL" style="rounded=1;whiteSpace=wrap;html=1;" parent="1" vertex="1">
          <mxGeometry x="-331" y="279" width="80" height="30" as="geometry" />
        </mxCell>
        <mxCell id="46yj2kF7BwGPf_dBNhTA-20" value="OLLAMA" style="rounded=1;whiteSpace=wrap;html=1;" parent="1" vertex="1">
          <mxGeometry x="-331" y="229" width="80" height="30" as="geometry" />
        </mxCell>
        <mxCell id="46yj2kF7BwGPf_dBNhTA-21" value="GEMINI" style="rounded=1;whiteSpace=wrap;html=1;" parent="1" vertex="1">
          <mxGeometry x="-331" y="179" width="80" height="30" as="geometry" />
        </mxCell>
        <mxCell id="46yj2kF7BwGPf_dBNhTA-22" style="edgeStyle=orthogonalEdgeStyle;rounded=0;orthogonalLoop=1;jettySize=auto;html=1;exitX=0.5;exitY=1;exitDx=0;exitDy=0;entryX=0.5;entryY=0;entryDx=0;entryDy=0;" parent="1" source="46yj2kF7BwGPf_dBNhTA-23" target="46yj2kF7BwGPf_dBNhTA-29" edge="1">
          <mxGeometry relative="1" as="geometry" />
        </mxCell>
        <mxCell id="46yj2kF7BwGPf_dBNhTA-23" value="Agent&lt;br&gt;DB Selection" style="rounded=0;whiteSpace=wrap;html=1;" parent="1" vertex="1">
          <mxGeometry x="-150" y="43" width="100" height="40" as="geometry" />
        </mxCell>
        <mxCell id="46yj2kF7BwGPf_dBNhTA-24" value="Chromadb" style="strokeWidth=2;html=1;shape=mxgraph.flowchart.database;whiteSpace=wrap;" parent="1" vertex="1">
          <mxGeometry x="-200" y="279" width="30" height="40" as="geometry" />
        </mxCell>
        <mxCell id="46yj2kF7BwGPf_dBNhTA-26" value="PGVector" style="strokeWidth=2;html=1;shape=mxgraph.flowchart.database;whiteSpace=wrap;" parent="1" vertex="1">
          <mxGeometry x="-80" y="279" width="30" height="40" as="geometry" />
        </mxCell>
        <mxCell id="46yj2kF7BwGPf_dBNhTA-27" value="Pinecon" style="strokeWidth=2;html=1;shape=mxgraph.flowchart.database;whiteSpace=wrap;" parent="1" vertex="1">
          <mxGeometry x="-146" y="279" width="30" height="40" as="geometry" />
        </mxCell>
        <mxCell id="46yj2kF7BwGPf_dBNhTA-28" value="Quadrant" style="strokeWidth=2;html=1;shape=mxgraph.flowchart.database;whiteSpace=wrap;" parent="1" vertex="1">
          <mxGeometry x="-30" y="279" width="30" height="40" as="geometry" />
        </mxCell>
        <mxCell id="46yj2kF7BwGPf_dBNhTA-29" value="Document&lt;br&gt;Embeddings" style="rounded=0;whiteSpace=wrap;html=1;" parent="1" vertex="1">
          <mxGeometry x="-150" y="100" width="101" height="35" as="geometry" />
        </mxCell>
        <mxCell id="46yj2kF7BwGPf_dBNhTA-30" value="Streamlit" style="rounded=1;whiteSpace=wrap;html=1;" parent="1" vertex="1">
          <mxGeometry x="-705" y="505" width="80" height="30" as="geometry" />
        </mxCell>
        <mxCell id="46yj2kF7BwGPf_dBNhTA-31" value="CLI" style="rounded=1;whiteSpace=wrap;html=1;" parent="1" vertex="1">
          <mxGeometry x="-705" y="455" width="80" height="30" as="geometry" />
        </mxCell>
        <mxCell id="46yj2kF7BwGPf_dBNhTA-32" value="SDK" style="rounded=1;whiteSpace=wrap;html=1;" parent="1" vertex="1">
          <mxGeometry x="-705" y="405" width="80" height="30" as="geometry" />
        </mxCell>
        <mxCell id="46yj2kF7BwGPf_dBNhTA-33" value="CHAT" style="rounded=1;whiteSpace=wrap;html=1;" parent="1" vertex="1">
          <mxGeometry x="-705" y="355" width="80" height="30" as="geometry" />
        </mxCell>
        <mxCell id="46yj2kF7BwGPf_dBNhTA-34" value="API" style="rounded=1;whiteSpace=wrap;html=1;" parent="1" vertex="1">
          <mxGeometry x="-705" y="305" width="80" height="30" as="geometry" />
        </mxCell>
        <mxCell id="46yj2kF7BwGPf_dBNhTA-35" value="Prompt/Query&lt;div&gt;&lt;/div&gt;" style="rounded=0;whiteSpace=wrap;html=1;" parent="1" vertex="1">
          <mxGeometry x="-550" y="400" width="100" height="40" as="geometry" />
        </mxCell>
        <mxCell id="46yj2kF7BwGPf_dBNhTA-36" value="" style="endArrow=classic;html=1;rounded=0;entryX=0;entryY=0.5;entryDx=0;entryDy=0;exitX=1;exitY=0.25;exitDx=0;exitDy=0;startArrow=block;startFill=1;" parent="1" source="46yj2kF7BwGPf_dBNhTA-34" edge="1">
          <mxGeometry width="50" height="50" relative="1" as="geometry">
            <mxPoint x="-625" y="330" as="sourcePoint" />
            <mxPoint x="-550" y="420" as="targetPoint" />
          </mxGeometry>
        </mxCell>
        <mxCell id="46yj2kF7BwGPf_dBNhTA-37" value="" style="endArrow=classic;html=1;rounded=0;exitX=1;exitY=0.5;exitDx=0;exitDy=0;startArrow=block;startFill=1;" parent="1" source="46yj2kF7BwGPf_dBNhTA-33" edge="1">
          <mxGeometry width="50" height="50" relative="1" as="geometry">
            <mxPoint x="-615" y="340" as="sourcePoint" />
            <mxPoint x="-550" y="420" as="targetPoint" />
          </mxGeometry>
        </mxCell>
        <mxCell id="46yj2kF7BwGPf_dBNhTA-38" value="" style="endArrow=classic;html=1;rounded=0;exitX=1;exitY=0.5;exitDx=0;exitDy=0;startArrow=block;startFill=1;" parent="1" source="46yj2kF7BwGPf_dBNhTA-32" edge="1">
          <mxGeometry width="50" height="50" relative="1" as="geometry">
            <mxPoint x="-620" y="430" as="sourcePoint" />
            <mxPoint x="-550" y="420" as="targetPoint" />
          </mxGeometry>
        </mxCell>
        <mxCell id="46yj2kF7BwGPf_dBNhTA-39" value="" style="endArrow=classic;html=1;rounded=0;entryX=0;entryY=0.5;entryDx=0;entryDy=0;exitX=1;exitY=0.5;exitDx=0;exitDy=0;startArrow=block;startFill=1;" parent="1" source="46yj2kF7BwGPf_dBNhTA-31" target="46yj2kF7BwGPf_dBNhTA-35" edge="1">
          <mxGeometry width="50" height="50" relative="1" as="geometry">
            <mxPoint x="-620" y="470" as="sourcePoint" />
            <mxPoint x="-560" y="420" as="targetPoint" />
          </mxGeometry>
        </mxCell>
        <mxCell id="46yj2kF7BwGPf_dBNhTA-40" value="" style="endArrow=classic;html=1;rounded=0;entryX=0;entryY=0.5;entryDx=0;entryDy=0;exitX=1;exitY=0.5;exitDx=0;exitDy=0;startArrow=block;startFill=1;" parent="1" source="46yj2kF7BwGPf_dBNhTA-30" target="46yj2kF7BwGPf_dBNhTA-35" edge="1">
          <mxGeometry width="50" height="50" relative="1" as="geometry">
            <mxPoint x="-585" y="370" as="sourcePoint" />
            <mxPoint x="-510" y="460" as="targetPoint" />
          </mxGeometry>
        </mxCell>
        <mxCell id="46yj2kF7BwGPf_dBNhTA-41" style="edgeStyle=orthogonalEdgeStyle;rounded=0;orthogonalLoop=1;jettySize=auto;html=1;exitX=0.5;exitY=0;exitDx=0;exitDy=0;entryX=0.5;entryY=1;entryDx=0;entryDy=0;startArrow=block;startFill=1;" parent="1" source="46yj2kF7BwGPf_dBNhTA-42" target="46yj2kF7BwGPf_dBNhTA-43" edge="1">
          <mxGeometry relative="1" as="geometry" />
        </mxCell>
        <mxCell id="46yj2kF7BwGPf_dBNhTA-42" value="Agent&lt;br&gt;DB Selection" style="rounded=0;whiteSpace=wrap;html=1;" parent="1" vertex="1">
          <mxGeometry x="-156" y="511" width="100" height="40" as="geometry" />
        </mxCell>
        <mxCell id="46yj2kF7BwGPf_dBNhTA-43" value="Query Embeddings" style="rounded=0;whiteSpace=wrap;html=1;" parent="1" vertex="1">
          <mxGeometry x="-156" y="449" width="101" height="35" as="geometry" />
        </mxCell>
        <mxCell id="46yj2kF7BwGPf_dBNhTA-46" style="edgeStyle=orthogonalEdgeStyle;rounded=0;orthogonalLoop=1;jettySize=auto;html=1;exitX=1;exitY=0.5;exitDx=0;exitDy=0;entryX=-0.014;entryY=0.063;entryDx=0;entryDy=0;entryPerimeter=0;" parent="1" source="46yj2kF7BwGPf_dBNhTA-11" target="46yj2kF7BwGPf_dBNhTA-5" edge="1">
          <mxGeometry relative="1" as="geometry" />
        </mxCell>
        <mxCell id="46yj2kF7BwGPf_dBNhTA-47" style="edgeStyle=orthogonalEdgeStyle;rounded=0;orthogonalLoop=1;jettySize=auto;html=1;entryX=0;entryY=0.5;entryDx=0;entryDy=0;exitX=0.989;exitY=0.068;exitDx=0;exitDy=0;exitPerimeter=0;" parent="1" target="46yj2kF7BwGPf_dBNhTA-23" edge="1" source="46yj2kF7BwGPf_dBNhTA-5">
          <mxGeometry relative="1" as="geometry">
            <mxPoint x="-221" y="63" as="sourcePoint" />
            <mxPoint x="-335" y="68" as="targetPoint" />
          </mxGeometry>
        </mxCell>
        <mxCell id="46yj2kF7BwGPf_dBNhTA-48" style="edgeStyle=orthogonalEdgeStyle;rounded=0;orthogonalLoop=1;jettySize=auto;html=1;entryX=-0.006;entryY=0.946;entryDx=0;entryDy=0;entryPerimeter=0;startArrow=block;startFill=1;" parent="1" source="46yj2kF7BwGPf_dBNhTA-35" target="46yj2kF7BwGPf_dBNhTA-5" edge="1">
          <mxGeometry relative="1" as="geometry" />
        </mxCell>
        <mxCell id="46yj2kF7BwGPf_dBNhTA-55" style="edgeStyle=orthogonalEdgeStyle;rounded=0;orthogonalLoop=1;jettySize=auto;html=1;exitX=0.5;exitY=1;exitDx=0;exitDy=0;entryX=0.5;entryY=0;entryDx=0;entryDy=0;entryPerimeter=0;" parent="1" source="46yj2kF7BwGPf_dBNhTA-29" target="46yj2kF7BwGPf_dBNhTA-24" edge="1">
          <mxGeometry relative="1" as="geometry" />
        </mxCell>
        <mxCell id="46yj2kF7BwGPf_dBNhTA-56" style="edgeStyle=orthogonalEdgeStyle;rounded=0;orthogonalLoop=1;jettySize=auto;html=1;exitX=0.5;exitY=1;exitDx=0;exitDy=0;entryX=0.5;entryY=0;entryDx=0;entryDy=0;entryPerimeter=0;" parent="1" source="46yj2kF7BwGPf_dBNhTA-29" target="46yj2kF7BwGPf_dBNhTA-27" edge="1">
          <mxGeometry relative="1" as="geometry" />
        </mxCell>
        <mxCell id="46yj2kF7BwGPf_dBNhTA-57" style="edgeStyle=orthogonalEdgeStyle;rounded=0;orthogonalLoop=1;jettySize=auto;html=1;exitX=0.5;exitY=1;exitDx=0;exitDy=0;entryX=0.5;entryY=0;entryDx=0;entryDy=0;entryPerimeter=0;" parent="1" source="46yj2kF7BwGPf_dBNhTA-29" target="46yj2kF7BwGPf_dBNhTA-26" edge="1">
          <mxGeometry relative="1" as="geometry" />
        </mxCell>
        <mxCell id="46yj2kF7BwGPf_dBNhTA-58" style="edgeStyle=orthogonalEdgeStyle;rounded=0;orthogonalLoop=1;jettySize=auto;html=1;exitX=0.5;exitY=1;exitDx=0;exitDy=0;entryX=0.5;entryY=0;entryDx=0;entryDy=0;entryPerimeter=0;" parent="1" source="46yj2kF7BwGPf_dBNhTA-29" target="46yj2kF7BwGPf_dBNhTA-28" edge="1">
          <mxGeometry relative="1" as="geometry" />
        </mxCell>
        <mxCell id="46yj2kF7BwGPf_dBNhTA-68" value="Store" style="edgeLabel;html=1;align=center;verticalAlign=middle;resizable=0;points=[];" parent="46yj2kF7BwGPf_dBNhTA-58" vertex="1" connectable="0">
          <mxGeometry x="-0.6617" relative="1" as="geometry">
            <mxPoint as="offset" />
          </mxGeometry>
        </mxCell>
        <mxCell id="46yj2kF7BwGPf_dBNhTA-62" style="edgeStyle=orthogonalEdgeStyle;rounded=0;orthogonalLoop=1;jettySize=auto;html=1;exitX=0.5;exitY=0;exitDx=0;exitDy=0;entryX=0.5;entryY=1;entryDx=0;entryDy=0;entryPerimeter=0;startArrow=block;startFill=1;" parent="1" source="46yj2kF7BwGPf_dBNhTA-43" target="46yj2kF7BwGPf_dBNhTA-24" edge="1">
          <mxGeometry relative="1" as="geometry" />
        </mxCell>
        <mxCell id="46yj2kF7BwGPf_dBNhTA-63" style="edgeStyle=orthogonalEdgeStyle;rounded=0;orthogonalLoop=1;jettySize=auto;html=1;exitX=0.5;exitY=0;exitDx=0;exitDy=0;entryX=0.5;entryY=1;entryDx=0;entryDy=0;entryPerimeter=0;startArrow=block;startFill=1;" parent="1" source="46yj2kF7BwGPf_dBNhTA-43" target="46yj2kF7BwGPf_dBNhTA-27" edge="1">
          <mxGeometry relative="1" as="geometry" />
        </mxCell>
        <mxCell id="46yj2kF7BwGPf_dBNhTA-64" style="edgeStyle=orthogonalEdgeStyle;rounded=0;orthogonalLoop=1;jettySize=auto;html=1;exitX=0.5;exitY=0;exitDx=0;exitDy=0;entryX=0.5;entryY=1;entryDx=0;entryDy=0;entryPerimeter=0;startArrow=block;startFill=1;" parent="1" source="46yj2kF7BwGPf_dBNhTA-43" target="46yj2kF7BwGPf_dBNhTA-26" edge="1">
          <mxGeometry relative="1" as="geometry" />
        </mxCell>
        <mxCell id="46yj2kF7BwGPf_dBNhTA-65" style="edgeStyle=orthogonalEdgeStyle;rounded=0;orthogonalLoop=1;jettySize=auto;html=1;exitX=0.5;exitY=0;exitDx=0;exitDy=0;entryX=0.5;entryY=1;entryDx=0;entryDy=0;entryPerimeter=0;startArrow=block;startFill=1;" parent="1" source="46yj2kF7BwGPf_dBNhTA-43" target="46yj2kF7BwGPf_dBNhTA-28" edge="1">
          <mxGeometry relative="1" as="geometry" />
        </mxCell>
        <mxCell id="46yj2kF7BwGPf_dBNhTA-66" value="Search" style="edgeLabel;html=1;align=center;verticalAlign=middle;resizable=0;points=[];" parent="46yj2kF7BwGPf_dBNhTA-65" vertex="1" connectable="0">
          <mxGeometry x="-0.7363" relative="1" as="geometry">
            <mxPoint as="offset" />
          </mxGeometry>
        </mxCell>
        <mxCell id="cYvZkhtMQDxPyYzyKL84-2" value="" style="endArrow=classic;startArrow=classic;html=1;rounded=0;exitX=0;exitY=0.5;exitDx=0;exitDy=0;entryX=0.95;entryY=0.95;entryDx=0;entryDy=0;entryPerimeter=0;" edge="1" parent="1" source="46yj2kF7BwGPf_dBNhTA-42" target="46yj2kF7BwGPf_dBNhTA-5">
          <mxGeometry width="50" height="50" relative="1" as="geometry">
            <mxPoint x="-250" y="310" as="sourcePoint" />
            <mxPoint x="-200" y="260" as="targetPoint" />
          </mxGeometry>
        </mxCell>
        <mxCell id="cYvZkhtMQDxPyYzyKL84-4" value="" style="shadow=0;dashed=0;html=1;strokeColor=none;fillColor=#4495D1;labelPosition=center;verticalLabelPosition=bottom;verticalAlign=top;align=center;outlineConnect=0;shape=mxgraph.veeam.portal_admin;" vertex="1" parent="1">
          <mxGeometry x="-820" y="142" width="44.4" height="48.8" as="geometry" />
        </mxCell>
        <mxCell id="cYvZkhtMQDxPyYzyKL84-6" style="edgeStyle=orthogonalEdgeStyle;rounded=0;orthogonalLoop=1;jettySize=auto;html=1;entryX=0.004;entryY=0.528;entryDx=0;entryDy=0;entryPerimeter=0;" edge="1" parent="1" source="cYvZkhtMQDxPyYzyKL84-4" target="46yj2kF7BwGPf_dBNhTA-4">
          <mxGeometry relative="1" as="geometry" />
        </mxCell>
        <mxCell id="cYvZkhtMQDxPyYzyKL84-9" value="" style="shape=actor;whiteSpace=wrap;html=1;" vertex="1" parent="1">
          <mxGeometry x="-822" y="405" width="40" height="60" as="geometry" />
        </mxCell>
        <mxCell id="cYvZkhtMQDxPyYzyKL84-10" style="edgeStyle=orthogonalEdgeStyle;rounded=0;orthogonalLoop=1;jettySize=auto;html=1;entryX=-0.006;entryY=0.528;entryDx=0;entryDy=0;entryPerimeter=0;" edge="1" parent="1" source="cYvZkhtMQDxPyYzyKL84-9" target="46yj2kF7BwGPf_dBNhTA-3">
          <mxGeometry relative="1" as="geometry" />
        </mxCell>
        <mxCell id="cYvZkhtMQDxPyYzyKL84-11" value="User" style="text;html=1;align=center;verticalAlign=middle;whiteSpace=wrap;rounded=0;" vertex="1" parent="1">
          <mxGeometry x="-827.8" y="465" width="60" height="30" as="geometry" />
        </mxCell>
        <mxCell id="cYvZkhtMQDxPyYzyKL84-12" value="Admin" style="text;html=1;align=center;verticalAlign=middle;whiteSpace=wrap;rounded=0;" vertex="1" parent="1">
          <mxGeometry x="-830.8" y="187" width="60" height="30" as="geometry" />
        </mxCell>
      </root>
    </mxGraphModel>
  </diagram>
</mxfile>
